<svg xmlns="http://www.w3.org/2000/svg" viewBox="0 0 35 35"><defs><style>.cls-1{fill:#5e2c2d;}.cls-2{fill:#fff;}</style></defs><title>acct-icon</title><g id="Layer_2" data-name="Layer 2"><g id="_1170px_grid" data-name="1170px grid"><rect class="cls-1" width="35" height="35" rx="3" ry="3"/><path class="cls-2" d="M17.79,8.19a7.68,7.68,0,0,1,4.43,1.1,3.76,3.76,0,0,1,1.59,3.3,3.49,3.49,0,0,1-.59,2,3.57,3.57,0,0,1-1.72,1.32,3.41,3.41,0,0,1,2.17,1.33,4,4,0,0,1,.72,2.35,4.16,4.16,0,0,1-1.52,3.5,6.89,6.89,0,0,1-4.32,1.19H10.64V22.34L12.35,22V10.47l-1.71-.33V8.19h7.15Zm-2.21,6.74H17.9a3.23,3.23,0,0,0,2-.53,1.83,1.83,0,0,0,.7-1.55,1.93,1.93,0,0,0-.7-1.65,3.45,3.45,0,0,0-2.09-.53H15.58Zm0,2.23V21.8h3a3,3,0,0,0,2-.56,2,2,0,0,0,.67-1.65,2.58,2.58,0,0,0-.57-1.81,2.36,2.36,0,0,0-1.81-.62Z"/></g></g></svg>