<svg xmlns="http://www.w3.org/2000/svg" viewBox="0 0 142.5 43.19"><defs><style>.cls-1{fill:#fff;}.cls-2{isolation:isolate;}</style></defs><title>Asset 2</title><g id="Layer_2" data-name="Layer 2"><g id="_1170px_grid" data-name="1170px grid"><path class="cls-1" d="M61.82,13.66a5.51,5.51,0,0,1,3.42.95,3.35,3.35,0,0,1,1.23,2.84,2.59,2.59,0,0,1-.59,1.67,3.49,3.49,0,0,1-1.56,1.09,3.25,3.25,0,0,1,2,1.24A3.65,3.65,0,0,1,67,23.69a3.56,3.56,0,0,1-1.25,2.93,5.2,5.2,0,0,1-3.38,1H55.7V26.43l1.56-.27v-11l-1.56-.27V13.66h6.12ZM59.15,19.6h3.16A2.45,2.45,0,0,0,64,19a2.05,2.05,0,0,0,.63-1.59,2,2,0,0,0-.71-1.69,3.25,3.25,0,0,0-2.05-.56H59.15Zm0,1.48v5.08h3.26a2.92,2.92,0,0,0,2-.64,2.3,2.3,0,0,0,.71-1.81,2.87,2.87,0,0,0-.6-1.93,2.29,2.29,0,0,0-1.84-.7Z"/><path class="cls-1" d="M68.52,13.88V12.67H72V26.16l1.56.27v1.21h-5V26.43l1.56-.27v-12Z"/><path class="cls-1" d="M74.79,22.35A5.72,5.72,0,0,1,76,18.55a4.61,4.61,0,0,1,6.79,0,5.7,5.7,0,0,1,1.25,3.8v.21a5.69,5.69,0,0,1-1.25,3.8,4.64,4.64,0,0,1-6.8,0,5.7,5.7,0,0,1-1.25-3.8Zm1.89.21a4.93,4.93,0,0,0,.7,2.73,2.5,2.5,0,0,0,4.11,0,4.9,4.9,0,0,0,.7-2.73v-.21a4.91,4.91,0,0,0-.7-2.72,2.5,2.5,0,0,0-4.12,0,5,5,0,0,0-.69,2.72Z"/><path class="cls-1" d="M90.47,26.36a2.55,2.55,0,0,0,1.66-.58,1.77,1.77,0,0,0,.71-1.43h1.7l0,.06a2.91,2.91,0,0,1-1.2,2.38,4.37,4.37,0,0,1-2.89,1A4.19,4.19,0,0,1,87,26.36a5.72,5.72,0,0,1-1.19-3.71v-.4a5.69,5.69,0,0,1,1.2-3.7,4.19,4.19,0,0,1,3.45-1.48,5.79,5.79,0,0,1,2.24.41,4.53,4.53,0,0,1,1.65,1.13l.09,2.3H92.94l-.41-1.63a2.51,2.51,0,0,0-.86-.53,3.31,3.31,0,0,0-1.19-.2,2.28,2.28,0,0,0-2.13,1.07,5,5,0,0,0-.64,2.62v.4a5.1,5.1,0,0,0,.63,2.65A2.28,2.28,0,0,0,90.47,26.36Z"/><path class="cls-1" d="M96,26.43l1.56-.27V18.74L96,18.47V17.25h3.26l.12,1.35a3.4,3.4,0,0,1,1.29-1.14,3.94,3.94,0,0,1,1.82-.4,3.21,3.21,0,0,1,1.78.48A2.91,2.91,0,0,1,105.42,19a3.85,3.85,0,0,1,1.3-1.4,3.4,3.4,0,0,1,1.88-.52,3.12,3.12,0,0,1,2.51,1.09,5,5,0,0,1,.92,3.28v4.73l1.56.27v1.21h-5V26.43l1.56-.27V21.41a3.45,3.45,0,0,0-.53-2.17A1.91,1.91,0,0,0,108,18.6a2,2,0,0,0-1.59.7,3,3,0,0,0-.7,1.75v5.12l1.56.27v1.21h-5V26.43l1.56-.27V21.41a3.41,3.41,0,0,0-.54-2.14,1.89,1.89,0,0,0-1.57-.68,2.59,2.59,0,0,0-1.42.36,2.29,2.29,0,0,0-.85,1v6.21l1.56.27v1.21H96Z"/><path class="cls-1" d="M121.75,27.64q-.09-.42-.13-.76t-.07-.67a4.59,4.59,0,0,1-1.37,1.17A3.92,3.92,0,0,1,116,27a2.91,2.91,0,0,1-.84-2.23,2.58,2.58,0,0,1,1.2-2.28,5.82,5.82,0,0,1,3.28-.8h1.95V20.53a1.87,1.87,0,0,0-.58-1.44,2.27,2.27,0,0,0-1.6-.53,3.93,3.93,0,0,0-1.25.18,2.35,2.35,0,0,0-.88.5l-.2,1.09h-1.46v-2a5.6,5.6,0,0,1,1.72-.91,6.8,6.8,0,0,1,2.19-.34,4.35,4.35,0,0,1,2.86.9,3.16,3.16,0,0,1,1.09,2.58v5q0,.2,0,.39c0,.13,0,.26,0,.38l.77.11v1.21Zm-3-1.38a3.36,3.36,0,0,0,1.72-.45,2.8,2.8,0,0,0,1.11-1.08V23h-2a2.88,2.88,0,0,0-1.84.54,1.62,1.62,0,0,0-.68,1.3,1.29,1.29,0,0,0,.42,1A1.93,1.93,0,0,0,118.71,26.26Z"/><path class="cls-1" d="M125.8,18.47V17.25h3.25l.18,1.51a3.62,3.62,0,0,1,1.09-1.25,2.53,2.53,0,0,1,1.48-.45,3.27,3.27,0,0,1,.46,0l.36.07-.25,1.76-1.08-.06a2.17,2.17,0,0,0-1.26.35,2.27,2.27,0,0,0-.79,1v6l1.56.27v1.21h-5V26.43l1.56-.27V18.74Z"/><path class="cls-1" d="M138.41,26.36a2.55,2.55,0,0,0,1.66-.58,1.77,1.77,0,0,0,.71-1.43h1.7l0,.06a2.91,2.91,0,0,1-1.2,2.38,4.37,4.37,0,0,1-2.89,1A4.19,4.19,0,0,1,135,26.36a5.72,5.72,0,0,1-1.19-3.71v-.4a5.69,5.69,0,0,1,1.2-3.7,4.19,4.19,0,0,1,3.45-1.48,5.79,5.79,0,0,1,2.24.41,4.53,4.53,0,0,1,1.65,1.13l.09,2.3h-1.51l-.41-1.63a2.51,2.51,0,0,0-.86-.53,3.31,3.31,0,0,0-1.19-.2,2.28,2.28,0,0,0-2.13,1.07,5,5,0,0,0-.64,2.62v.4a5.1,5.1,0,0,0,.63,2.65A2.28,2.28,0,0,0,138.41,26.36Z"/><path class="cls-1" d="M23.56,13.08a.76.76,0,0,0-.52.68L23,42.88c0,.3.19.4.43.22l9.29-6.78a1.48,1.48,0,0,1,1-.23l9.08,1.5a.44.44,0,0,0,.53-.45L43.34,8a.39.39,0,0,0-.52-.39Z"/><g class="cls-2"><path class="cls-1" d="M0,8a.39.39,0,0,1,.52-.39l19.26,5.44a.76.76,0,0,1,.52.68l.05,29.11c0,.3-.19.4-.43.22l-9.29-6.78a1.48,1.48,0,0,0-1-.23L.58,37.59a.44.44,0,0,1-.53-.45L0,9.11C0,8.81,0,8.33,0,8Z"/></g><path class="cls-1" d="M22.18,10.92a2.3,2.3,0,0,1-1,0L1.83,5.58c-.29-.08-.28-.21,0-.28L21.16.06a2.35,2.35,0,0,1,1,0L41.51,5.29c.29.08.29.21,0,.28Z"/></g></g></svg>